<svg xmlns="http://www.w3.org/2000/svg" viewBox="0 0 1440 320">
        <path
          fill="#0099ff"
          fill-opacity="1"
          d="M0,96L20,101.3C40,107,80,117,120,154.7C160,192,200,256,240,240C280,224,320,128,360,80C400,32,440,32,480,58.7C520,85,560,139,600,165.3C640,192,680,192,720,160C760,128,800,64,840,69.3C880,75,920,149,960,176C1000,203,1040,181,1080,165.3C1120,149,1160,139,1200,112C1240,85,1280,43,1320,58.7C1360,75,1400,149,1420,186.7L1440,224L1440,320L1420,320C1400,320,1360,320,1320,320C1280,320,1240,320,1200,320C1160,320,1120,320,1080,320C1040,320,1000,320,960,320C920,320,880,320,840,320C800,320,760,320,720,320C680,320,640,320,600,320C560,320,520,320,480,320C440,320,400,320,360,320C320,320,280,320,240,320C200,320,160,320,120,320C80,320,40,320,20,320L0,320Z"
        ></path>
      </svg>